name ./resultDataOpenSim/trcMotMarkerGrf/sub09/grf-04-03.mot
datacolumns 19
datarows 27
range 0.48800000 0.59200000
endheader

                time	     ground_force_vx	     ground_force_vy	     ground_force_vz	     ground_force_px	     ground_force_py	     ground_force_pz	   l_ground_force_vx	   l_ground_force_vy	   l_ground_force_vz	   l_ground_force_px	   l_ground_force_py	   l_ground_force_pz	     ground_torque_x	     ground_torque_y	     ground_torque_z	   l_ground_torque_x	   l_ground_torque_y	   l_ground_torque_z	
          0.48800000	         -5.27094289	        346.39123203	        -17.69847935	         -0.62059477	          0.00000000	          0.14470897	          0.00000000	          0.00000000	          0.00000000	          0.00000000	          0.00000000	          0.00000000	          0.00000000	          2.70313979	          0.00000000	          0.00000000	          0.00000000	          0.00000000	
          0.49200000	         -4.03831646	        349.61680648	        -19.44114706	         -0.61943377	          0.00000000	          0.14518103	          0.00000000	          0.00000000	          0.00000000	          0.00000000	          0.00000000	          0.00000000	          0.00000000	          2.59708450	          0.00000000	          0.00000000	          0.00000000	          0.00000000	
          0.49600000	         -1.95606193	        352.93194677	        -20.38300194	         -0.61858328	          0.00000000	          0.14561064	          0.00000000	          0.00000000	          0.00000000	          0.00000000	          0.00000000	          0.00000000	          0.00000000	          2.58953086	          0.00000000	          0.00000000	          0.00000000	          0.00000000	
          0.50000000	          0.74638990	        356.43616683	        -20.41448764	         -0.61803280	          0.00000000	          0.14598164	          0.00000000	          0.00000000	          0.00000000	          0.00000000	          0.00000000	          0.00000000	          0.00000000	          2.70636021	          0.00000000	          0.00000000	          0.00000000	          0.00000000	
          0.50400000	          3.68991649	        360.26326188	        -19.55575661	         -0.61772093	          0.00000000	          0.14628819	          0.00000000	          0.00000000	          0.00000000	          0.00000000	          0.00000000	          0.00000000	          0.00000000	          2.95889459	          0.00000000	          0.00000000	          0.00000000	          0.00000000	
          0.50800000	          6.45266814	        364.55343674	        -17.95853235	         -0.61754060	          0.00000000	          0.14654257	          0.00000000	          0.00000000	          0.00000000	          0.00000000	          0.00000000	          0.00000000	          0.00000000	          3.33941691	          0.00000000	          0.00000000	          0.00000000	          0.00000000	
          0.51200000	          8.69543612	        369.44068754	        -15.88025697	         -0.61741274	          0.00000000	          0.14676243	          0.00000000	          0.00000000	          0.00000000	          0.00000000	          0.00000000	          0.00000000	          0.00000000	          3.82024596	          0.00000000	          0.00000000	          0.00000000	          0.00000000	
          0.51600000	         10.26417763	        375.04652113	        -13.63659998	         -0.61730389	          0.00000000	          0.14697583	          0.00000000	          0.00000000	          0.00000000	          0.00000000	          0.00000000	          0.00000000	          0.00000000	          4.35678453	          0.00000000	          0.00000000	          0.00000000	          0.00000000	
          0.52000000	         11.23357310	        381.46614949	        -11.54825202	         -0.61722039	          0.00000000	          0.14721595	          0.00000000	          0.00000000	          0.00000000	          0.00000000	          0.00000000	          0.00000000	          0.00000000	          4.89412893	          0.00000000	          0.00000000	          0.00000000	          0.00000000	
          0.52400000	         11.88507199	        388.75146324	         -9.89676385	         -0.61717130	          0.00000000	          0.14752800	          0.00000000	          0.00000000	          0.00000000	          0.00000000	          0.00000000	          0.00000000	          0.00000000	          5.37607303	          0.00000000	          0.00000000	          0.00000000	          0.00000000	
          0.52800000	         12.63298768	        396.91292770	         -8.89460184	         -0.61715961	          0.00000000	          0.14796137	          0.00000000	          0.00000000	          0.00000000	          0.00000000	          0.00000000	          0.00000000	          0.00000000	          5.75463291	          0.00000000	          0.00000000	          0.00000000	          0.00000000	
          0.53200000	         13.91985645	        405.94530625	         -8.66707650	         -0.61717403	          0.00000000	          0.14856275	          0.00000000	          0.00000000	          0.00000000	          0.00000000	          0.00000000	          0.00000000	          0.00000000	          5.99787323	          0.00000000	          0.00000000	          0.00000000	          0.00000000	
          0.53600000	         16.10619854	        415.85818399	         -9.24625613	         -0.61721079	          0.00000000	          0.14935444	          0.00000000	          0.00000000	          0.00000000	          0.00000000	          0.00000000	          0.00000000	          0.00000000	          6.09416479	          0.00000000	          0.00000000	          0.00000000	          0.00000000	
          0.54000000	         19.38240021	        426.68073807	        -10.57808900	         -0.61728606	          0.00000000	          0.15032052	          0.00000000	          0.00000000	          0.00000000	          0.00000000	          0.00000000	          0.00000000	          0.00000000	          6.05200432	          0.00000000	          0.00000000	          0.00000000	          0.00000000	
          0.54400000	         23.72725454	        438.42153150	        -12.54132438	         -0.61740144	          0.00000000	          0.15142506	          0.00000000	          0.00000000	          0.00000000	          0.00000000	          0.00000000	          0.00000000	          0.00000000	          5.89577790	          0.00000000	          0.00000000	          0.00000000	          0.00000000	
          0.54800000	         28.92675556	        451.01352263	        -14.97649235	         -0.61752863	          0.00000000	          0.15262754	          0.00000000	          0.00000000	          0.00000000	          0.00000000	          0.00000000	          0.00000000	          0.00000000	          5.65886853	          0.00000000	          0.00000000	          0.00000000	          0.00000000	
          0.55200000	         34.65021281	        464.30475772	        -17.71906805	         -0.61762043	          0.00000000	          0.15388394	          0.00000000	          0.00000000	          0.00000000	          0.00000000	          0.00000000	          0.00000000	          0.00000000	          5.37600526	          0.00000000	          0.00000000	          0.00000000	          0.00000000	
          0.55600000	         40.55730254	        478.11398147	        -20.62617499	         -0.61763163	          0.00000000	          0.15514737	          0.00000000	          0.00000000	          0.00000000	          0.00000000	          0.00000000	          0.00000000	          0.00000000	          5.07669995	          0.00000000	          0.00000000	          0.00000000	          0.00000000	
          0.56000000	         46.39585506	        492.30238068	        -23.58708330	         -0.61754477	          0.00000000	          0.15636962	          0.00000000	          0.00000000	          0.00000000	          0.00000000	          0.00000000	          0.00000000	          0.00000000	          4.78114989	          0.00000000	          0.00000000	          0.00000000	          0.00000000	
          0.56400000	         52.05880463	        506.80039703	        -26.51351327	         -0.61737997	          0.00000000	          0.15749914	          0.00000000	          0.00000000	          0.00000000	          0.00000000	          0.00000000	          0.00000000	          0.00000000	          4.49927929	          0.00000000	          0.00000000	          0.00000000	          0.00000000	
          0.56800000	         57.58833877	        521.58058727	        -29.31712759	         -0.61717705	          0.00000000	          0.15848499	          0.00000000	          0.00000000	          0.00000000	          0.00000000	          0.00000000	          0.00000000	          0.00000000	          4.23281507	          0.00000000	          0.00000000	          0.00000000	          0.00000000	
          0.57200000	         63.13390137	        536.61716884	        -31.89247218	         -0.61696779	          0.00000000	          0.15928980	          0.00000000	          0.00000000	          0.00000000	          0.00000000	          0.00000000	          0.00000000	          0.00000000	          3.97958298	          0.00000000	          0.00000000	          0.00000000	          0.00000000	
          0.57600000	         68.88419871	        551.86537542	        -34.12048707	         -0.61676588	          0.00000000	          0.15989441	          0.00000000	          0.00000000	          0.00000000	          0.00000000	          0.00000000	          0.00000000	          0.00000000	          3.73867143	          0.00000000	          0.00000000	          0.00000000	          0.00000000	
          0.58000000	         74.99919177	        567.25042154	        -35.88814212	         -0.61658112	          0.00000000	          0.16029574	          0.00000000	          0.00000000	          0.00000000	          0.00000000	          0.00000000	          0.00000000	          0.00000000	          3.51483572	          0.00000000	          0.00000000	          0.00000000	          0.00000000	
          0.58400000	         81.56000942	        582.65934768	        -37.10667363	         -0.61641321	          0.00000000	          0.16050625	          0.00000000	          0.00000000	          0.00000000	          0.00000000	          0.00000000	          0.00000000	          0.00000000	          3.32061492	          0.00000000	          0.00000000	          0.00000000	          0.00000000	
          0.58800000	         88.54235818	        597.95757321	        -37.72273324	         -0.61625045	          0.00000000	          0.16055302	          0.00000000	          0.00000000	          0.00000000	          0.00000000	          0.00000000	          0.00000000	          0.00000000	          3.17517247	          0.00000000	          0.00000000	          0.00000000	          0.00000000	
          0.59200000	         95.81756313	        613.02723187	        -37.72837872	         -0.61607722	          0.00000000	          0.16046943	          0.00000000	          0.00000000	          0.00000000	          0.00000000	          0.00000000	          0.00000000	          0.00000000	          3.09981772	          0.00000000	          0.00000000	          0.00000000	          0.00000000	
